<svg data-v-423bf9ae="" xmlns="http://www.w3.org/2000/svg" viewBox="0 0 532 113" class="iconLeft"><!----><!----><!----><g data-v-423bf9ae="" id="4045fd65-88db-43cb-87ca-bc2644c2b5e4" fill="#FFFFFF" transform="matrix(5.429864406585693,0,0,5.429864406585693,128.7025909423828,14.35302734375)"><path d="M2.81 12.11L2.81 12.11L2.81 12.11Q3.61 12.11 4.00 11.90L4.00 11.90L4.00 11.90Q4.38 11.69 4.38 11.23L4.38 11.23L4.38 11.23Q4.38 10.75 4.00 10.47L4.00 10.47L4.00 10.47Q3.63 10.19 2.76 9.84L2.76 9.84L2.76 9.84Q2.34 9.67 1.95 9.50L1.95 9.50L1.95 9.50Q1.57 9.32 1.29 9.09L1.29 9.09L1.29 9.09Q1.01 8.85 0.84 8.51L0.84 8.51L0.84 8.51Q0.67 8.18 0.67 7.69L0.67 7.69L0.67 7.69Q0.67 6.72 1.39 6.15L1.39 6.15L1.39 6.15Q2.10 5.59 3.33 5.59L3.33 5.59L3.33 5.59Q3.64 5.59 3.95 5.62L3.95 5.62L3.95 5.62Q4.26 5.66 4.52 5.71L4.52 5.71L4.52 5.71Q4.79 5.75 4.99 5.81L4.99 5.81L4.99 5.81Q5.19 5.87 5.31 5.91L5.31 5.91L5.07 7.03L5.07 7.03Q4.86 6.92 4.41 6.80L4.41 6.80L4.41 6.80Q3.96 6.68 3.33 6.68L3.33 6.68L3.33 6.68Q2.79 6.68 2.38 6.89L2.38 6.89L2.38 6.89Q1.97 7.11 1.97 7.57L1.97 7.57L1.97 7.57Q1.97 7.81 2.06 7.99L2.06 7.99L2.06 7.99Q2.16 8.18 2.35 8.32L2.35 8.32L2.35 8.32Q2.53 8.47 2.81 8.60L2.81 8.60L2.81 8.60Q3.09 8.72 3.49 8.86L3.49 8.86L3.49 8.86Q4.00 9.06 4.41 9.25L4.41 9.25L4.41 9.25Q4.82 9.44 5.10 9.69L5.10 9.69L5.10 9.69Q5.39 9.94 5.54 10.30L5.54 10.30L5.54 10.30Q5.70 10.65 5.70 11.17L5.70 11.17L5.70 11.17Q5.70 12.18 4.95 12.70L4.95 12.70L4.95 12.70Q4.20 13.22 2.81 13.22L2.81 13.22L2.81 13.22Q1.85 13.22 1.30 13.05L1.30 13.05L1.30 13.05Q0.76 12.89 0.56 12.81L0.56 12.81L0.80 11.69L0.80 11.69Q1.02 11.77 1.51 11.94L1.51 11.94L1.51 11.94Q2.00 12.11 2.81 12.11ZM8.58 3.51L8.58 5.77L11.34 5.77L11.34 6.86L8.58 6.86L8.58 10.22L8.58 10.22Q8.58 10.77 8.67 11.12L8.67 11.12L8.67 11.12Q8.75 11.48 8.92 11.68L8.92 11.68L8.92 11.68Q9.09 11.89 9.34 11.97L9.34 11.97L9.34 11.97Q9.59 12.05 9.93 12.05L9.93 12.05L9.93 12.05Q10.51 12.05 10.87 11.92L10.87 11.92L10.87 11.92Q11.23 11.79 11.37 11.73L11.37 11.73L11.62 12.81L11.62 12.81Q11.42 12.91 10.93 13.05L10.93 13.05L10.93 13.05Q10.44 13.20 9.81 13.20L9.81 13.20L9.81 13.20Q9.07 13.20 8.59 13.01L8.59 13.01L8.59 13.01Q8.11 12.82 7.81 12.45L7.81 12.45L7.81 12.45Q7.52 12.07 7.40 11.52L7.40 11.52L7.40 11.52Q7.28 10.96 7.28 10.23L7.28 10.23L7.28 3.74L8.58 3.51ZM15.46 12.11L15.46 12.11L15.46 12.11Q15.92 12.11 16.27 12.09L16.27 12.09L16.27 12.09Q16.63 12.07 16.87 12.01L16.87 12.01L16.87 9.84L16.87 9.84Q16.73 9.77 16.41 9.72L16.41 9.72L16.41 9.72Q16.10 9.67 15.65 9.67L15.65 9.67L15.65 9.67Q15.36 9.67 15.03 9.72L15.03 9.72L15.03 9.72Q14.70 9.76 14.43 9.89L14.43 9.89L14.43 9.89Q14.15 10.02 13.97 10.25L13.97 10.25L13.97 10.25Q13.79 10.49 13.79 10.86L13.79 10.86L13.79 10.86Q13.79 11.56 14.24 11.84L14.24 11.84L14.24 11.84Q14.69 12.11 15.46 12.11ZM15.34 5.59L15.34 5.59L15.34 5.59Q16.13 5.59 16.67 5.79L16.67 5.79L16.67 5.79Q17.21 5.99 17.54 6.36L17.54 6.36L17.54 6.36Q17.86 6.73 18.00 7.25L18.00 7.25L18.00 7.25Q18.14 7.76 18.14 8.37L18.14 8.37L18.14 12.92L18.14 12.92Q17.98 12.95 17.68 13.00L17.68 13.00L17.68 13.00Q17.37 13.05 17.00 13.09L17.00 13.09L17.00 13.09Q16.62 13.13 16.18 13.17L16.18 13.17L16.18 13.17Q15.74 13.20 15.30 13.20L15.30 13.20L15.30 13.20Q14.69 13.20 14.17 13.08L14.17 13.08L14.17 13.08Q13.65 12.95 13.27 12.68L13.27 12.68L13.27 12.68Q12.89 12.40 12.68 11.96L12.68 11.96L12.68 11.96Q12.47 11.51 12.47 10.88L12.47 10.88L12.47 10.88Q12.47 10.28 12.72 9.84L12.72 9.84L12.72 9.84Q12.96 9.41 13.38 9.14L13.38 9.14L13.38 9.14Q13.80 8.88 14.36 8.75L14.36 8.75L14.36 8.75Q14.92 8.62 15.54 8.62L15.54 8.62L15.54 8.62Q15.74 8.62 15.95 8.64L15.95 8.64L15.95 8.64Q16.16 8.67 16.34 8.70L16.34 8.70L16.34 8.70Q16.53 8.74 16.67 8.76L16.67 8.76L16.67 8.76Q16.81 8.79 16.87 8.81L16.87 8.81L16.87 8.44L16.87 8.44Q16.87 8.12 16.80 7.80L16.80 7.80L16.80 7.80Q16.73 7.49 16.55 7.25L16.55 7.25L16.55 7.25Q16.37 7 16.05 6.85L16.05 6.85L16.05 6.85Q15.74 6.71 15.23 6.71L15.23 6.71L15.23 6.71Q14.59 6.71 14.11 6.80L14.11 6.80L14.11 6.80Q13.62 6.89 13.38 6.99L13.38 6.99L13.23 5.91L13.23 5.91Q13.48 5.80 14.07 5.69L14.07 5.69L14.07 5.69Q14.66 5.59 15.34 5.59ZM23.46 13.22L23.46 13.22L23.46 13.22Q22.58 13.22 21.92 12.94L21.92 12.94L21.92 12.94Q21.25 12.66 20.80 12.15L20.80 12.15L20.80 12.15Q20.34 11.65 20.12 10.96L20.12 10.96L20.12 10.96Q19.89 10.26 19.89 9.42L19.89 9.42L19.89 9.42Q19.89 8.58 20.14 7.88L20.14 7.88L20.14 7.88Q20.38 7.18 20.83 6.67L20.83 6.67L20.83 6.67Q21.28 6.16 21.93 5.87L21.93 5.87L21.93 5.87Q22.58 5.59 23.38 5.59L23.38 5.59L23.38 5.59Q23.87 5.59 24.36 5.67L24.36 5.67L24.36 5.67Q24.85 5.75 25.30 5.94L25.30 5.94L25.00 7.04L25.00 7.04Q24.71 6.90 24.32 6.82L24.32 6.82L24.32 6.82Q23.94 6.73 23.51 6.73L23.51 6.73L23.51 6.73Q22.41 6.73 21.83 7.42L21.83 7.42L21.83 7.42Q21.25 8.11 21.25 9.42L21.25 9.42L21.25 9.42Q21.25 10.01 21.38 10.50L21.38 10.50L21.38 10.50Q21.52 10.99 21.80 11.34L21.80 11.34L21.80 11.34Q22.09 11.69 22.54 11.88L22.54 11.88L22.54 11.88Q22.99 12.07 23.63 12.07L23.63 12.07L23.63 12.07Q24.15 12.07 24.57 11.97L24.57 11.97L24.57 11.97Q24.99 11.87 25.23 11.76L25.23 11.76L25.41 12.85L25.41 12.85Q25.30 12.92 25.09 12.98L25.09 12.98L25.09 12.98Q24.88 13.05 24.61 13.10L24.61 13.10L24.61 13.10Q24.35 13.15 24.05 13.18L24.05 13.18L24.05 13.18Q23.74 13.22 23.46 13.22ZM29.44 9.04L29.44 9.04L29.44 9.04Q29.86 9.37 30.33 9.84L30.33 9.84L30.33 9.84Q30.80 10.32 31.25 10.87L31.25 10.87L31.25 10.87Q31.71 11.42 32.12 11.99L32.12 11.99L32.12 11.99Q32.52 12.56 32.80 13.05L32.80 13.05L31.28 13.05L31.28 13.05Q30.98 12.56 30.60 12.05L30.60 12.05L30.60 12.05Q30.21 11.54 29.79 11.07L29.79 11.07L29.79 11.07Q29.37 10.60 28.94 10.21L28.94 10.21L28.94 10.21Q28.50 9.81 28.11 9.55L28.11 9.55L28.11 13.05L26.81 13.05L26.81 2.41L28.11 2.18L28.11 8.82L28.11 8.82Q28.45 8.48 28.85 8.08L28.85 8.08L28.85 8.08Q29.26 7.67 29.65 7.25L29.65 7.25L29.65 7.25Q30.04 6.83 30.39 6.45L30.39 6.45L30.39 6.45Q30.74 6.06 31.00 5.77L31.00 5.77L32.52 5.77L32.52 5.77Q32.20 6.12 31.82 6.54L31.82 6.54L31.82 6.54Q31.44 6.96 31.04 7.38L31.04 7.38L31.04 7.38Q30.63 7.81 30.22 8.24L30.22 8.24L30.22 8.24Q29.81 8.67 29.44 9.04ZM35.81 12.11L35.81 12.11L35.81 12.11Q36.61 12.11 36.99 11.90L36.99 11.90L36.99 11.90Q37.38 11.69 37.38 11.23L37.38 11.23L37.38 11.23Q37.38 10.75 37.00 10.47L37.00 10.47L37.00 10.47Q36.62 10.19 35.76 9.84L35.76 9.84L35.76 9.84Q35.34 9.67 34.95 9.50L34.95 9.50L34.95 9.50Q34.57 9.32 34.29 9.09L34.29 9.09L34.29 9.09Q34.01 8.85 33.84 8.51L33.84 8.51L33.84 8.51Q33.67 8.18 33.67 7.69L33.67 7.69L33.67 7.69Q33.67 6.72 34.38 6.15L34.38 6.15L34.38 6.15Q35.10 5.59 36.33 5.59L36.33 5.59L36.33 5.59Q36.64 5.59 36.95 5.62L36.95 5.62L36.95 5.62Q37.25 5.66 37.52 5.71L37.52 5.71L37.52 5.71Q37.79 5.75 37.99 5.81L37.99 5.81L37.99 5.81Q38.19 5.87 38.30 5.91L38.30 5.91L38.07 7.03L38.07 7.03Q37.86 6.92 37.41 6.80L37.41 6.80L37.41 6.80Q36.96 6.68 36.33 6.68L36.33 6.68L36.33 6.68Q35.78 6.68 35.38 6.89L35.38 6.89L35.38 6.89Q34.97 7.11 34.97 7.57L34.97 7.57L34.97 7.57Q34.97 7.81 35.06 7.99L35.06 7.99L35.06 7.99Q35.15 8.18 35.34 8.32L35.34 8.32L35.34 8.32Q35.53 8.47 35.81 8.60L35.81 8.60L35.81 8.60Q36.09 8.72 36.48 8.86L36.48 8.86L36.48 8.86Q37.00 9.06 37.41 9.25L37.41 9.25L37.41 9.25Q37.81 9.44 38.10 9.69L38.10 9.69L38.10 9.69Q38.39 9.94 38.54 10.30L38.54 10.30L38.54 10.30Q38.70 10.65 38.70 11.17L38.70 11.17L38.70 11.17Q38.70 12.18 37.95 12.70L37.95 12.70L37.95 12.70Q37.20 13.22 35.81 13.22L35.81 13.22L35.81 13.22Q34.85 13.22 34.30 13.05L34.30 13.05L34.30 13.05Q33.75 12.89 33.56 12.81L33.56 12.81L33.80 11.69L33.80 11.69Q34.02 11.77 34.51 11.94L34.51 11.94L34.51 11.94Q35 12.11 35.81 12.11ZM42.83 12.11L42.83 12.11L42.83 12.11Q43.29 12.11 43.64 12.09L43.64 12.09L43.64 12.09Q44.00 12.07 44.24 12.01L44.24 12.01L44.24 9.84L44.24 9.84Q44.10 9.77 43.78 9.72L43.78 9.72L43.78 9.72Q43.47 9.67 43.02 9.67L43.02 9.67L43.02 9.67Q42.73 9.67 42.40 9.72L42.40 9.72L42.40 9.72Q42.07 9.76 41.80 9.89L41.80 9.89L41.80 9.89Q41.52 10.02 41.34 10.25L41.34 10.25L41.34 10.25Q41.16 10.49 41.16 10.86L41.16 10.86L41.16 10.86Q41.16 11.56 41.61 11.84L41.61 11.84L41.61 11.84Q42.06 12.11 42.83 12.11ZM42.71 5.59L42.71 5.59L42.71 5.59Q43.50 5.59 44.04 5.79L44.04 5.79L44.04 5.79Q44.58 5.99 44.91 6.36L44.91 6.36L44.91 6.36Q45.23 6.73 45.37 7.25L45.37 7.25L45.37 7.25Q45.51 7.76 45.51 8.37L45.51 8.37L45.51 12.92L45.51 12.92Q45.35 12.95 45.04 13.00L45.04 13.00L45.04 13.00Q44.74 13.05 44.37 13.09L44.37 13.09L44.37 13.09Q43.99 13.13 43.55 13.17L43.55 13.17L43.55 13.17Q43.11 13.20 42.67 13.20L42.67 13.20L42.67 13.20Q42.06 13.20 41.54 13.08L41.54 13.08L41.54 13.08Q41.02 12.95 40.64 12.68L40.64 12.68L40.64 12.68Q40.26 12.40 40.05 11.96L40.05 11.96L40.05 11.96Q39.84 11.51 39.84 10.88L39.84 10.88L39.84 10.88Q39.84 10.28 40.09 9.84L40.09 9.84L40.09 9.84Q40.33 9.41 40.75 9.14L40.75 9.14L40.75 9.14Q41.17 8.88 41.73 8.75L41.73 8.75L41.73 8.75Q42.29 8.62 42.91 8.62L42.91 8.62L42.91 8.62Q43.11 8.62 43.32 8.64L43.32 8.64L43.32 8.64Q43.53 8.67 43.71 8.70L43.71 8.70L43.71 8.70Q43.90 8.74 44.04 8.76L44.04 8.76L44.04 8.76Q44.18 8.79 44.24 8.81L44.24 8.81L44.24 8.44L44.24 8.44Q44.24 8.12 44.17 7.80L44.17 7.80L44.17 7.80Q44.10 7.49 43.92 7.25L43.92 7.25L43.92 7.25Q43.74 7 43.42 6.85L43.42 6.85L43.42 6.85Q43.11 6.71 42.60 6.71L42.60 6.71L42.60 6.71Q41.96 6.71 41.47 6.80L41.47 6.80L41.47 6.80Q40.99 6.89 40.75 6.99L40.75 6.99L40.60 5.91L40.60 5.91Q40.85 5.80 41.44 5.69L41.44 5.69L41.44 5.69Q42.03 5.59 42.71 5.59ZM47.67 13.05L47.67 5.98L47.67 5.98Q48.12 5.87 48.86 5.74L48.86 5.74L48.86 5.74Q49.60 5.61 50.57 5.61L50.57 5.61L50.57 5.61Q51.44 5.61 52.01 5.86L52.01 5.86L52.01 5.86Q52.58 6.10 52.93 6.54L52.93 6.54L52.93 6.54Q53.27 6.99 53.41 7.60L53.41 7.60L53.41 7.60Q53.55 8.22 53.55 8.96L53.55 8.96L53.55 13.05L52.25 13.05L52.25 9.24L52.25 9.24Q52.25 8.57 52.16 8.09L52.16 8.09L52.16 8.09Q52.07 7.62 51.86 7.32L51.86 7.32L51.86 7.32Q51.65 7.03 51.30 6.89L51.30 6.89L51.30 6.89Q50.95 6.76 50.43 6.76L50.43 6.76L50.43 6.76Q50.22 6.76 49.99 6.78L49.99 6.78L49.99 6.78Q49.77 6.79 49.57 6.81L49.57 6.81L49.57 6.81Q49.36 6.83 49.20 6.86L49.20 6.86L49.20 6.86Q49.04 6.89 48.97 6.90L48.97 6.90L48.97 13.05L47.67 13.05ZM56.92 3.51L56.92 5.77L59.68 5.77L59.68 6.86L56.92 6.86L56.92 10.22L56.92 10.22Q56.92 10.77 57.01 11.12L57.01 11.12L57.01 11.12Q57.09 11.48 57.26 11.68L57.26 11.68L57.26 11.68Q57.43 11.89 57.68 11.97L57.68 11.97L57.68 11.97Q57.93 12.05 58.27 12.05L58.27 12.05L58.27 12.05Q58.86 12.05 59.21 11.92L59.21 11.92L59.21 11.92Q59.57 11.79 59.71 11.73L59.71 11.73L59.96 12.81L59.96 12.81Q59.77 12.91 59.28 13.05L59.28 13.05L59.28 13.05Q58.79 13.20 58.16 13.20L58.16 13.20L58.16 13.20Q57.41 13.20 56.93 13.01L56.93 13.01L56.93 13.01Q56.45 12.82 56.15 12.45L56.15 12.45L56.15 12.45Q55.86 12.07 55.74 11.52L55.74 11.52L55.74 11.52Q55.62 10.96 55.62 10.23L55.62 10.23L55.62 3.74L56.92 3.51ZM67.76 9.41L67.76 9.41L67.76 9.41Q67.76 10.28 67.51 10.98L67.51 10.98L67.51 10.98Q67.26 11.68 66.80 12.18L66.80 12.18L66.80 12.18Q66.35 12.68 65.72 12.96L65.72 12.96L65.72 12.96Q65.09 13.23 64.34 13.23L64.34 13.23L64.34 13.23Q63.60 13.23 62.97 12.96L62.97 12.96L62.97 12.96Q62.34 12.68 61.89 12.18L61.89 12.18L61.89 12.18Q61.43 11.68 61.18 10.98L61.18 10.98L61.18 10.98Q60.93 10.28 60.93 9.41L60.93 9.41L60.93 9.41Q60.93 8.55 61.18 7.85L61.18 7.85L61.18 7.85Q61.43 7.14 61.89 6.64L61.89 6.64L61.89 6.64Q62.34 6.13 62.97 5.86L62.97 5.86L62.97 5.86Q63.60 5.59 64.34 5.59L64.34 5.59L64.34 5.59Q65.09 5.59 65.72 5.86L65.72 5.86L65.72 5.86Q66.35 6.13 66.80 6.64L66.80 6.64L66.80 6.64Q67.26 7.14 67.51 7.85L67.51 7.85L67.51 7.85Q67.76 8.55 67.76 9.41ZM66.40 9.41L66.40 9.41L66.40 9.41Q66.40 8.18 65.85 7.46L65.85 7.46L65.85 7.46Q65.30 6.73 64.34 6.73L64.34 6.73L64.34 6.73Q63.39 6.73 62.84 7.46L62.84 7.46L62.84 7.46Q62.29 8.18 62.29 9.41L62.29 9.41L62.29 9.41Q62.29 10.64 62.84 11.36L62.84 11.36L62.84 11.36Q63.39 12.08 64.34 12.08L64.34 12.08L64.34 12.08Q65.30 12.08 65.85 11.36L65.85 11.36L65.85 11.36Q66.40 10.64 66.40 9.41ZM71.29 12.11L71.29 12.11L71.29 12.11Q72.09 12.11 72.47 11.90L72.47 11.90L72.47 11.90Q72.86 11.69 72.86 11.23L72.86 11.23L72.86 11.23Q72.86 10.75 72.48 10.47L72.48 10.47L72.48 10.47Q72.10 10.19 71.23 9.84L71.23 9.84L71.23 9.84Q70.81 9.67 70.43 9.50L70.43 9.50L70.43 9.50Q70.04 9.32 69.76 9.09L69.76 9.09L69.76 9.09Q69.48 8.85 69.31 8.51L69.31 8.51L69.31 8.51Q69.15 8.18 69.15 7.69L69.15 7.69L69.15 7.69Q69.15 6.72 69.86 6.15L69.86 6.15L69.86 6.15Q70.57 5.59 71.81 5.59L71.81 5.59L71.81 5.59Q72.11 5.59 72.42 5.62L72.42 5.62L72.42 5.62Q72.73 5.66 73.00 5.71L73.00 5.71L73.00 5.71Q73.26 5.75 73.47 5.81L73.47 5.81L73.47 5.81Q73.67 5.87 73.78 5.91L73.78 5.91L73.54 7.03L73.54 7.03Q73.33 6.92 72.88 6.80L72.88 6.80L72.88 6.80Q72.44 6.68 71.81 6.68L71.81 6.68L71.81 6.68Q71.26 6.68 70.85 6.89L70.85 6.89L70.85 6.89Q70.45 7.11 70.45 7.57L70.45 7.57L70.45 7.57Q70.45 7.81 70.54 7.99L70.54 7.99L70.54 7.99Q70.63 8.18 70.82 8.32L70.82 8.32L70.82 8.32Q71.01 8.47 71.29 8.60L71.29 8.60L71.29 8.60Q71.57 8.72 71.96 8.86L71.96 8.86L71.96 8.86Q72.48 9.06 72.88 9.25L72.88 9.25L72.88 9.25Q73.29 9.44 73.58 9.69L73.58 9.69L73.58 9.69Q73.86 9.94 74.02 10.30L74.02 10.30L74.02 10.30Q74.17 10.65 74.17 11.17L74.17 11.17L74.17 11.17Q74.17 12.18 73.42 12.70L73.42 12.70L73.42 12.70Q72.67 13.22 71.29 13.22L71.29 13.22L71.29 13.22Q70.32 13.22 69.78 13.05L69.78 13.05L69.78 13.05Q69.23 12.89 69.03 12.81L69.03 12.81L69.27 11.69L69.27 11.69Q69.50 11.77 69.99 11.94L69.99 11.94L69.99 11.94Q70.48 12.11 71.29 12.11Z"></path></g><!----><g data-v-423bf9ae="" id="abfe4efe-c610-41ce-9f7c-c9fd712ff27c" transform="matrix(1.117438793182373,0,0,1.117438793182373,0.12830784916877747,0.8433127403259277)" stroke="none" fill="#5BA4CC"><path d="M78.078 53.341L50 71.975 21.417 53.51 1.771 65.483c-2.361 1.454-2.361 1.433 0 3.035L47.723 99.21c2.277 1.433 2.277 1.433 4.553 0l45.953-30.691c2.361-1.602 2.361-1.602 0-3.035L78.078 53.341zM52.277.79C50-.643 50-.643 47.723.79L1.771 31.482c-2.361 1.433-2.361 1.581 0 3.035l45.953 30.691c2.277 1.433 2.277 1.433 4.553 0L98.23 34.517c2.298-1.518 2.277-1.518 0-3.035L52.277.79z"></path></g><!----></svg>